<svg width="103" height="52" viewBox="0 0 103 52" fill="none" xmlns="http://www.w3.org/2000/svg">
<path d="M10.68 19.42C10.2533 19.7267 9.70667 19.9467 9.04 20.08C8.38667 20.2133 7.71333 20.28 7.02 20.28C6.18 20.28 5.38 20.1533 4.62 19.9C3.87333 19.6333 3.21333 19.2133 2.64 18.64C2.06667 18.0533 1.60667 17.3 1.26 16.38C0.926667 15.4467 0.76 14.32 0.76 13C0.76 11.6267 0.946667 10.48 1.32 9.56C1.70667 8.62667 2.2 7.88 2.8 7.32C3.41333 6.74667 4.09333 6.34 4.84 6.1C5.58667 5.84667 6.33333 5.72 7.08 5.72C7.88 5.72 8.55333 5.77333 9.1 5.88C9.66 5.98667 10.12 6.11333 10.48 6.26L9.94 8.58C9.63333 8.43333 9.26667 8.32667 8.84 8.26C8.42667 8.19333 7.92 8.16 7.32 8.16C6.21333 8.16 5.32 8.55333 4.64 9.34C3.97333 10.1267 3.64 11.3467 3.64 13C3.64 13.72 3.72 14.38 3.88 14.98C4.04 15.5667 4.28 16.0733 4.6 16.5C4.93333 16.9133 5.34 17.24 5.82 17.48C6.31333 17.7067 6.88 17.82 7.52 17.82C8.12 17.82 8.62667 17.76 9.04 17.64C9.45333 17.52 9.81333 17.3667 10.12 17.18L10.68 19.42ZM20.2319 14.14H15.1119V20H12.3719V6H15.1119V11.7H20.2319V6H22.9719V20H20.2319V14.14ZM32.2992 16.9H27.9992L26.9392 20H24.1992L29.2392 5.9H31.2592L36.2992 20H33.4192L32.2992 16.9ZM28.6992 14.7H31.6992L30.6592 11.58L30.2392 9.38H30.1392L29.7192 11.6L28.6992 14.7ZM45.8861 8.44H41.8061V20H39.0661V8.44H34.9661V6H45.8861V8.44ZM8.1 42.9H3.8L2.74 46H0L5.04 31.9H7.06L12.1 46H9.22L8.1 42.9ZM4.5 40.7H7.5L6.46 37.58L6.04 35.38H5.94L5.52 37.6L4.5 40.7ZM13.3094 32.14C13.8694 32.0333 14.4827 31.9533 15.1494 31.9C15.8294 31.8333 16.5027 31.8 17.1694 31.8C17.8627 31.8 18.556 31.86 19.2494 31.98C19.956 32.0867 20.5894 32.3133 21.1494 32.66C21.7094 32.9933 22.1627 33.4667 22.5094 34.08C22.8694 34.68 23.0494 35.4667 23.0494 36.44C23.0494 37.32 22.896 38.0667 22.5894 38.68C22.2827 39.28 21.876 39.7733 21.3694 40.16C20.8627 40.5467 20.2827 40.8267 19.6294 41C18.9894 41.1733 18.3227 41.26 17.6294 41.26C17.5627 41.26 17.456 41.26 17.3094 41.26C17.1627 41.26 17.0094 41.26 16.8494 41.26C16.6894 41.2467 16.5294 41.2333 16.3694 41.22C16.2227 41.2067 16.116 41.1933 16.0494 41.18V46H13.3094V32.14ZM17.3894 34.16C17.1227 34.16 16.8694 34.1733 16.6294 34.2C16.3894 34.2133 16.196 34.2333 16.0494 34.26V38.8C16.1027 38.8133 16.1827 38.8267 16.2894 38.84C16.396 38.8533 16.5094 38.8667 16.6294 38.88C16.7494 38.88 16.8627 38.88 16.9694 38.88C17.0894 38.88 17.176 38.88 17.2294 38.88C17.5894 38.88 17.9427 38.8467 18.2894 38.78C18.6494 38.7133 18.9694 38.5933 19.2494 38.42C19.5294 38.2333 19.7494 37.98 19.9094 37.66C20.0827 37.34 20.1694 36.92 20.1694 36.4C20.1694 35.96 20.0894 35.6 19.9294 35.32C19.7694 35.0267 19.556 34.7933 19.2894 34.62C19.036 34.4467 18.7427 34.3267 18.4094 34.26C18.076 34.1933 17.736 34.16 17.3894 34.16ZM24.7547 32.14C25.3147 32.0333 25.928 31.9533 26.5947 31.9C27.2747 31.8333 27.948 31.8 28.6147 31.8C29.308 31.8 30.0014 31.86 30.6947 31.98C31.4014 32.0867 32.0347 32.3133 32.5947 32.66C33.1547 32.9933 33.608 33.4667 33.9547 34.08C34.3147 34.68 34.4947 35.4667 34.4947 36.44C34.4947 37.32 34.3414 38.0667 34.0347 38.68C33.728 39.28 33.3214 39.7733 32.8147 40.16C32.308 40.5467 31.728 40.8267 31.0747 41C30.4347 41.1733 29.768 41.26 29.0747 41.26C29.008 41.26 28.9014 41.26 28.7547 41.26C28.608 41.26 28.4547 41.26 28.2947 41.26C28.1347 41.2467 27.9747 41.2333 27.8147 41.22C27.668 41.2067 27.5614 41.1933 27.4947 41.18V46H24.7547V32.14ZM28.8347 34.16C28.568 34.16 28.3147 34.1733 28.0747 34.2C27.8347 34.2133 27.6414 34.2333 27.4947 34.26V38.8C27.548 38.8133 27.628 38.8267 27.7347 38.84C27.8414 38.8533 27.9547 38.8667 28.0747 38.88C28.1947 38.88 28.308 38.88 28.4147 38.88C28.5347 38.88 28.6214 38.88 28.6747 38.88C29.0347 38.88 29.388 38.8467 29.7347 38.78C30.0947 38.7133 30.4147 38.5933 30.6947 38.42C30.9747 38.2333 31.1947 37.98 31.3547 37.66C31.528 37.34 31.6147 36.92 31.6147 36.4C31.6147 35.96 31.5347 35.6 31.3747 35.32C31.2147 35.0267 31.0014 34.7933 30.7347 34.62C30.4814 34.4467 30.188 34.3267 29.8547 34.26C29.5214 34.1933 29.1814 34.16 28.8347 34.16Z" fill="black"/>
<path d="M78.864 49C67.3846 49 55 41.7996 55 26C55 10.2004 67.3846 3 78.864 3C85.2415 3 91.1252 5.09839 95.4866 8.92487C100.218 13.1216 102.728 19.0465 102.728 26C102.728 32.9535 100.218 38.8372 95.4866 43.034C91.1252 46.8605 85.2004 49 78.864 49Z" fill="url(#paint0_radial_12_45)"/>
<path d="M70.7996 16.9646C69.0757 16.9646 67.5081 18.4211 67.5081 20.8404C67.5081 23.2597 69.0757 24.7122 70.7996 24.7122C72.5277 24.7122 74.0912 23.2556 74.0912 20.8404C74.0912 18.4252 72.5442 16.9646 70.7996 16.9646Z" fill="#422B0D"/>
<path d="M70.6556 18.5816C70.0714 18.3018 69.3678 18.5486 69.0839 19.1329C68.8658 19.5896 68.9646 20.1368 69.3308 20.4907C69.915 20.7705 70.6186 20.5236 70.9025 19.9393C71.1206 19.4826 71.0218 18.9354 70.6556 18.5816Z" fill="#896024"/>
<path d="M86.5993 16.9646C84.8753 16.9646 83.3077 18.4211 83.3077 20.8404C83.3077 23.2597 84.8753 24.7122 86.5993 24.7122C88.3233 24.7122 89.8909 23.2556 89.8909 20.8404C89.8909 18.4252 88.3233 16.9646 86.5993 16.9646Z" fill="#422B0D"/>
<path d="M86.4347 18.5816C85.8504 18.3018 85.1469 18.5486 84.863 19.1329C84.6449 19.5896 84.7437 20.1368 85.1098 20.4907C85.6941 20.7705 86.3977 20.5236 86.6816 19.9393C86.8996 19.4826 86.8009 18.9354 86.4347 18.5816Z" fill="#896024"/>
<path d="M78.6172 37.8127C74.8853 37.8415 71.3222 36.2739 68.8247 33.5007C68.6354 33.2826 68.5902 32.9741 68.7095 32.7107C68.8288 32.4433 69.0921 32.2705 69.3843 32.2664C69.5159 32.2664 69.6476 32.3034 69.7628 32.3692C71.746 33.5089 75.0623 34.9243 78.6172 34.9243H78.6748C82.2256 34.9243 85.546 33.5089 87.525 32.3692C87.6402 32.3034 87.7719 32.2664 87.9036 32.2664C88.1957 32.2705 88.459 32.4433 88.5784 32.7107C88.7018 32.9741 88.6565 33.2826 88.4631 33.5007C85.9657 36.2739 82.3943 37.8456 78.6624 37.8127" fill="#422B0D"/>
<path d="M98.5683 12.3275C100.761 15.866 101.905 20.0792 101.905 24.7656C101.905 31.7191 99.3953 37.6029 94.6637 41.7996C90.3023 45.6261 84.3775 47.7656 78.0411 47.7656C70.6104 47.7656 62.8175 44.7415 58.2175 38.327C62.6447 45.5932 70.9724 49 78.864 49C85.2004 49 91.1252 46.8605 95.4866 43.034C100.218 38.8372 102.728 32.9535 102.728 26C102.728 20.7581 101.3 16.1005 98.5683 12.3275Z" fill="#EB8F00"/>
<path d="M59.0607 27.0607C59.6464 26.4749 59.6464 25.5251 59.0607 24.9393L49.5147 15.3934C48.9289 14.8076 47.9792 14.8076 47.3934 15.3934C46.8076 15.9792 46.8076 16.9289 47.3934 17.5147L55.8787 26L47.3934 34.4853C46.8076 35.0711 46.8076 36.0208 47.3934 36.6066C47.9792 37.1924 48.9289 37.1924 49.5147 36.6066L59.0607 27.0607ZM0 27.5H58V24.5H0V27.5Z" fill="black"/>
<defs>
<radialGradient id="paint0_radial_12_45" cx="0" cy="0" r="1" gradientUnits="userSpaceOnUse" gradientTransform="translate(78.864 26) scale(23.436 23.436)">
<stop offset="0.5" stop-color="#FDE030"/>
<stop offset="0.92" stop-color="#F7C02B"/>
<stop offset="1" stop-color="#F4A223"/>
</radialGradient>
</defs>
</svg>
